<?xml version="1.0" encoding="utf-8"?>
<!-- Generator: Adobe Illustrator 27.3.1, SVG Export Plug-In . SVG Version: 6.00 Build 0)  -->
<svg version="1.1" id="Layer_1" xmlns="http://www.w3.org/2000/svg" xmlns:xlink="http://www.w3.org/1999/xlink" x="0px" y="0px"
	 viewBox="0 0 50 50" style="enable-background:new 0 0 50 50;" xml:space="preserve">
<style type="text/css">
	.st0{fill:#FFFFFF;stroke:#000000;stroke-width:2;}
	.st1{fill:#DF7D00;stroke:#000000;stroke-width:2;stroke-linecap:round;stroke-linejoin:round;}
</style>
<circle class="st0" cx="25" cy="25" r="24"/>
<path class="st1" d="M36.2,30.4v3c0,0.3-0.1,0.6-0.2,0.8c-0.1,0.3-0.3,0.5-0.5,0.7c-0.2,0.2-0.5,0.3-0.8,0.4s-0.6,0.1-0.9,0.1
	c-3.3-0.3-6.5-1.4-9.2-3c-2.6-1.5-4.8-3.6-6.4-6c-1.8-2.6-2.9-5.5-3.3-8.6c0-0.3,0-0.6,0.1-0.8c0.1-0.3,0.2-0.5,0.4-0.7
	c0.2-0.2,0.4-0.4,0.7-0.5c0.3-0.1,0.6-0.2,0.9-0.2h3.2c0.5,0,1,0.2,1.4,0.5c0.4,0.3,0.7,0.8,0.7,1.2c0.1,1,0.4,1.9,0.7,2.8
	c0.1,0.4,0.2,0.7,0.1,1.1c-0.1,0.4-0.3,0.7-0.6,1l-1.4,1.3c1.5,2.5,3.7,4.5,6.4,6l1.4-1.3c0.3-0.3,0.7-0.5,1.1-0.5
	c0.4-0.1,0.8-0.1,1.2,0.1c1,0.3,2,0.6,3,0.7c0.5,0.1,1,0.3,1.3,0.7C36,29.5,36.2,30,36.2,30.4z"/>
</svg>
