<?xml version="1.0" encoding="utf-8"?>
<!-- Generator: Adobe Illustrator 27.3.1, SVG Export Plug-In . SVG Version: 6.00 Build 0)  -->
<svg version="1.1" id="Layer_1" xmlns="http://www.w3.org/2000/svg" xmlns:xlink="http://www.w3.org/1999/xlink" x="0px" y="0px"
	 viewBox="0 0 50 50" style="enable-background:new 0 0 50 50;" xml:space="preserve">
<style type="text/css">
	.st0{fill:#FFFFFF;stroke:#000000;stroke-width:2;}
	.st1{fill:#D47D00;stroke:#000000;stroke-width:2;stroke-linecap:round;stroke-linejoin:round;}
	.st2{fill:none;stroke:#000000;stroke-width:2;stroke-linecap:round;stroke-linejoin:round;}
</style>
<circle class="st0" cx="25" cy="25" r="24"/>
<path class="st1" d="M36.8,18.9c-0.1-0.5-0.4-1-0.8-1.4c-0.4-0.4-0.9-0.7-1.4-0.8c-1.9-0.5-9.6-0.5-9.6-0.5s-7.7,0-9.6,0.5
	c-0.5,0.1-1,0.4-1.4,0.8s-0.7,0.9-0.8,1.4c-0.4,2-0.5,3.9-0.5,5.9c0,2,0.2,4,0.5,6c0.1,0.5,0.4,1,0.8,1.4s0.9,0.6,1.4,0.8
	c1.9,0.5,9.6,0.5,9.6,0.5s7.7,0,9.6-0.5c0.5-0.1,1-0.4,1.4-0.8c0.4-0.4,0.7-0.9,0.8-1.4c0.4-1.9,0.5-3.9,0.5-5.9
	C37.3,22.9,37.2,20.8,36.8,18.9L36.8,18.9z"/>
<path class="st2" d="M22.5,28.5l6.5-3.7l-6.5-3.7V28.5z"/>
</svg>
